<svg id="Layer_1" data-name="Layer 1" xmlns="http://www.w3.org/2000/svg" viewBox="0 0 1300 900"><defs><style>.cls-1{fill:#231f20;}.cls-2{fill:#ee1c25;}</style></defs><polygon class="cls-1" points="324.49 390.41 349.18 488.91 342.56 509.59 314.71 509.59 284.02 390.41 324.49 390.41"/><path class="cls-2" d="M457.51,472.21v37.38h-2.42a29.52,29.52,0,0,1-28.46-37.38h30.88Z"/><polygon class="cls-1" points="437.82 390.41 417.78 468.23 411.44 491.25 391.33 414.43 397.35 390.41 437.82 390.41"/><polygon class="cls-1" points="375.19 390.41 406.37 509.59 365.4 509.59 334.72 390.41 375.19 390.41"/><path class="cls-1" d="M507.26,390.41v86a33.13,33.13,0,0,1-33.13,33.13h-8.45V390.41Z"/><polygon class="cls-1" points="507.26 420.65 442.56 420.65 449.28 390.41 507.26 390.41 507.26 420.65"/><path class="cls-1" d="M536.55,399.62a.37.37,0,0,1,.3-.44,31.14,31.14,0,0,1,4.65-.31c.73,0,1.48,0,2.24.06a13.52,13.52,0,0,1,2,.26.35.35,0,0,1,.28.29l6.28,33,7.56-33a.37.37,0,0,1,.31-.28c.72-.1,1.39-.18,2-.24s1.41-.09,2.15-.09a23.21,23.21,0,0,1,3.74.33.35.35,0,0,1,.3.28l7.87,33.83,6.27-33.82a.39.39,0,0,1,.3-.3,21.17,21.17,0,0,1,3.68-.32,23.17,23.17,0,0,1,2.39.12l1.87.21a.35.35,0,0,1,.31.44l-10.47,43.5a.35.35,0,0,1-.3.28,28,28,0,0,1-4.36.33,38.84,38.84,0,0,1-4.84-.33.37.37,0,0,1-.31-.28l-7-29.17-7.55,29.16a.35.35,0,0,1-.32.27c-.88.08-1.66.15-2.35.23a23.88,23.88,0,0,1-2.49.12,24.64,24.64,0,0,1-3.86-.33.37.37,0,0,1-.31-.28Z"/><path class="cls-1" d="M614.59,414q-3.6-3.06-10-3.07a33,33,0,0,0-5,.43c-1,.16-2,.38-3,.64a1,1,0,0,0-.73,1c0,1.15,0,3.36,0,4.78a1,1,0,0,0,1.26,1,20.63,20.63,0,0,1,5.82-.9,19.87,19.87,0,0,1,2.8.18,5.64,5.64,0,0,1,2.11.71,3.7,3.7,0,0,1,1.36,1.44,5.22,5.22,0,0,1,.49,2.4v.73q-2.16-.18-3.93-.18a24,24,0,0,0-4.91.52,14.43,14.43,0,0,0-4.46,1.72,9.72,9.72,0,0,0-3.25,3.19,9.1,9.1,0,0,0-1.26,4.95,11,11,0,0,0,1,5,8.52,8.52,0,0,0,2.88,3.31,12.34,12.34,0,0,0,4.48,1.85,28.39,28.39,0,0,0,5.74.55,35.51,35.51,0,0,0,6.94-.62c1.73-.34,3.23-.7,4.52-1.07a1,1,0,0,0,.7-.95V423.8Q618.18,417.05,614.59,414Zm-4.88,23-1.6.27a11.43,11.43,0,0,1-1.84.16c-.53,0-1.16,0-1.87-.1a6.49,6.49,0,0,1-2-.49,4,4,0,0,1-1.63-1.26,3.88,3.88,0,0,1-.67-2.45,3.76,3.76,0,0,1,1.75-3.47,9,9,0,0,1,4.76-1.08,15,15,0,0,1,1.53.1c.57.06,1.11.13,1.6.21Z"/><path class="cls-1" d="M645.41,414q-3.6-3.06-10-3.07a32.86,32.86,0,0,0-5,.43c-1,.17-2,.38-3,.65a1,1,0,0,0-.72.94v4.8a1,1,0,0,0,1.16.95,37.19,37.19,0,0,1,6-.89,20,20,0,0,1,2.8.18,5.7,5.7,0,0,1,2.11.71,3.7,3.7,0,0,1,1.36,1.44,5.22,5.22,0,0,1,.49,2.4v.73q-2.16-.18-3.93-.18a24.19,24.19,0,0,0-4.92.52,14.47,14.47,0,0,0-4.45,1.72,9.72,9.72,0,0,0-3.25,3.19,9.1,9.1,0,0,0-1.26,4.95,11.11,11.11,0,0,0,1,5,8.63,8.63,0,0,0,2.89,3.31,12.34,12.34,0,0,0,4.48,1.85,28.32,28.32,0,0,0,5.74.55,35.51,35.51,0,0,0,6.94-.62c1.72-.34,3.23-.7,4.52-1.07a1,1,0,0,0,.7-.95V423.8Q649,417.05,645.41,414Zm-4.88,23-1.6.27a11.43,11.43,0,0,1-1.84.16c-.53,0-1.16,0-1.88-.1a6.5,6.5,0,0,1-2-.49,3.63,3.63,0,0,1-2.3-3.71,3.76,3.76,0,0,1,1.75-3.47,9,9,0,0,1,4.75-1.08,15.19,15.19,0,0,1,1.54.1c.57.06,1.11.13,1.6.21Z"/><path class="cls-1" d="M681.88,418.44h2.67a1.17,1.17,0,0,0,1.17-1.18v-3.81a1.17,1.17,0,0,0-1.17-1.17H674.46c-.29-.13-.6-.25-.9-.37a16.32,16.32,0,0,0-5.66-.94,17.21,17.21,0,0,0-5.64.86,12.66,12.66,0,0,0-4.27,2.36,10.09,10.09,0,0,0-2.67,3.56,10.84,10.84,0,0,0-.92,4.45,10.42,10.42,0,0,0,1.17,4.92,10.64,10.64,0,0,0,3.31,3.74,11.07,11.07,0,0,0-2.88,2.82,6.69,6.69,0,0,0-1,3.81,5.77,5.77,0,0,0,.83,3.22,7,7,0,0,0,2.24,2.12,12.29,12.29,0,0,0-3.53,3.13,7.5,7.5,0,0,0-1.31,4.55,8,8,0,0,0,.7,3.37,6.16,6.16,0,0,0,2.33,2.58,12.85,12.85,0,0,0,4.21,1.62,28.68,28.68,0,0,0,6.26.59,28,28,0,0,0,6.88-.8,18.84,18.84,0,0,0,5.52-2.27,11.74,11.74,0,0,0,3.69-3.59,8.66,8.66,0,0,0,1.34-4.7,8.56,8.56,0,0,0-2.63-6.72c-1.76-1.58-4.5-2.4-8.23-2.49L664.9,438a4.15,4.15,0,0,1-2.62-.68,2.12,2.12,0,0,1-.64-1.59,5,5,0,0,1,.25-1.45,2.9,2.9,0,0,1,1.29-1.44,18.37,18.37,0,0,0,4.72.55,16.92,16.92,0,0,0,5.62-.86,12.56,12.56,0,0,0,4.21-2.33,9.77,9.77,0,0,0,2.61-3.53,11.12,11.12,0,0,0,.89-4.45,8.23,8.23,0,0,0-.25-2.27,8,8,0,0,0-.55-1.47h1.45ZM661.8,445.75a3.82,3.82,0,0,1,1.41-1,5.36,5.36,0,0,1,2.24-.3l6.45.12a5.7,5.7,0,0,1,2.05.31,3.06,3.06,0,0,1,1.2.76,2.63,2.63,0,0,1,.59,1,5.08,5.08,0,0,1,.15,1.18,3.71,3.71,0,0,1-2.37,3.31,13.53,13.53,0,0,1-6.23,1.23,11.13,11.13,0,0,1-4.69-.83,3.17,3.17,0,0,1-1.75-3.17,4.75,4.75,0,0,1,.21-1.37A3.29,3.29,0,0,1,661.8,445.75Zm9.89-19.49a4.43,4.43,0,0,1-3.72,1.47,4.58,4.58,0,0,1-3.81-1.47A6.39,6.39,0,0,1,663,422.2a6.52,6.52,0,0,1,1.17-4.09,4.54,4.54,0,0,1,3.81-1.5,4.39,4.39,0,0,1,3.72,1.5,6.71,6.71,0,0,1,1.13,4.09A6.57,6.57,0,0,1,671.69,426.26Z"/><path class="cls-1" d="M695.35,430.18a6.64,6.64,0,0,0,2.58,5.34,10.33,10.33,0,0,0,6.14,1.66,23.42,23.42,0,0,0,4.27-.4,24.89,24.89,0,0,0,3.17-.79,1.16,1.16,0,0,1,1.44.62,16.87,16.87,0,0,1,.7,2,14.82,14.82,0,0,1,.5,2.82,1.14,1.14,0,0,1-.76,1.16,30.55,30.55,0,0,1-10,1.55,20.94,20.94,0,0,1-7.58-1.23,13.39,13.39,0,0,1-5.16-3.41,13.6,13.6,0,0,1-2.94-5.18,21.56,21.56,0,0,1-1-6.57,21.22,21.22,0,0,1,1-6.57,15.17,15.17,0,0,1,2.91-5.34,13.92,13.92,0,0,1,4.79-3.6,15.77,15.77,0,0,1,6.66-1.32,14.15,14.15,0,0,1,5.9,1.17,13,13,0,0,1,4.39,3.19,13.51,13.51,0,0,1,2.73,4.82,19.17,19.17,0,0,1,.92,6c0,.78,0,1.54-.09,2.3s-.14,1.36-.22,1.81Zm12.46-6.08a7.7,7.7,0,0,0-1.62-4.75,5.18,5.18,0,0,0-4.21-1.82,6.09,6.09,0,0,0-4.67,1.72,8.16,8.16,0,0,0-1.9,4.85Z"/><path class="cls-1" d="M721.69,412.8a1.39,1.39,0,0,1,1.19-1.37l.53-.07a18.22,18.22,0,0,1,1.9-.09,16.52,16.52,0,0,1,1.84.09c.53.07,1.09.16,1.66.28a4.06,4.06,0,0,1,.34.89q.15.59.27,1.23c.08.43.16.85.22,1.26l.15,1a14,14,0,0,1,1.48-1.84,10.5,10.5,0,0,1,2-1.66,11.09,11.09,0,0,1,2.55-1.2,10.24,10.24,0,0,1,3.13-.46c3.6,0,6.31,1,8.13,3s2.74,5.06,2.74,9.27v19.17a1.25,1.25,0,0,1-1.09,1.25,25.88,25.88,0,0,1-3.27.21,26.16,26.16,0,0,1-3.28-.21,1.25,1.25,0,0,1-1.08-1.25V425.45a10.49,10.49,0,0,0-1-5.09,3.72,3.72,0,0,0-3.53-1.78,7.76,7.76,0,0,0-2.15.31,4.46,4.46,0,0,0-2,1.19,6.6,6.6,0,0,0-1.44,2.49,13,13,0,0,0-.55,4.17v15.55a1.25,1.25,0,0,1-1.09,1.25,25.88,25.88,0,0,1-3.27.21,26.16,26.16,0,0,1-3.28-.21,1.25,1.25,0,0,1-1.08-1.25Z"/><path class="cls-1" d="M770.35,422.75a1.26,1.26,0,0,1,1.25,1.11,19.3,19.3,0,0,1,.19,2.64,20,20,0,0,1-.19,2.7,1.25,1.25,0,0,1-1.25,1.1H756.83a1.27,1.27,0,0,1-1.26-1.1,19.3,19.3,0,0,1-.18-2.64,20,20,0,0,1,.18-2.7,1.28,1.28,0,0,1,1.26-1.11Z"/><path class="cls-1" d="M784.82,399.12a1.09,1.09,0,0,0-1.09,1.09v30.16a7.26,7.26,0,0,1-.64,3.4,4.68,4.68,0,0,1-1.6,1.81,4.73,4.73,0,0,1-2.11.74,21.8,21.8,0,0,1-2.22.12,7.45,7.45,0,0,1-1.65-.18c-.52-.12-1.1-.59-1.45-.3-.86.74,0,6.74,0,6.74a1.07,1.07,0,0,0,.88,1.06c.38.07.76.13,1.15.17a21.19,21.19,0,0,0,8.17-.49,11.67,11.67,0,0,0,4.42-2.18,10.37,10.37,0,0,0,2.94-3.86,13.77,13.77,0,0,0,1.08-5.74V400.21a1.09,1.09,0,0,0-1.09-1.09Z"/><path class="cls-1" d="M813.2,444.12a16.51,16.51,0,0,1-6.72-1.26,12.75,12.75,0,0,1-4.73-3.5,15.08,15.08,0,0,1-2.82-5.25,21.25,21.25,0,0,1-.95-6.51,21.93,21.93,0,0,1,.95-6.57,15.19,15.19,0,0,1,2.82-5.31,13.16,13.16,0,0,1,4.73-3.53,16.18,16.18,0,0,1,6.72-1.29,16.47,16.47,0,0,1,6.76,1.29,13.38,13.38,0,0,1,4.79,3.53,14.71,14.71,0,0,1,2.82,5.31,22.93,22.93,0,0,1,.92,6.57,22.22,22.22,0,0,1-.92,6.51,14.61,14.61,0,0,1-2.82,5.25,13,13,0,0,1-4.79,3.5A16.81,16.81,0,0,1,813.2,444.12Zm0-6.63a5.3,5.3,0,0,0,4.95-2.55c1-1.7,1.5-4.14,1.5-7.34s-.5-5.63-1.5-7.33a5.3,5.3,0,0,0-4.95-2.55,5.24,5.24,0,0,0-4.88,2.55q-1.5,2.55-1.5,7.33c0,3.2.5,5.64,1.5,7.34A5.24,5.24,0,0,0,813.2,437.49Z"/><path class="cls-1" d="M834,399.85a1.55,1.55,0,0,1,1.4-1.54l.74-.05c.74,0,1.46-.06,2.15-.06s1.41,0,2.15.06c.27,0,.54,0,.8.06a1.54,1.54,0,0,1,1.41,1.54v15.53q.44-.56,1.14-1.32a9.39,9.39,0,0,1,1.75-1.48,9.92,9.92,0,0,1,2.51-1.19,10.63,10.63,0,0,1,3.38-.5c3.52,0,6.19,1,8,3s2.74,5.06,2.74,9.27v19a1.56,1.56,0,0,1-1.42,1.54l-.79.06c-.74,0-1.46.06-2.15.06s-1.42,0-2.15-.06l-.8-.06a1.55,1.55,0,0,1-1.41-1.54V425.45a10.12,10.12,0,0,0-1.05-5.09,3.77,3.77,0,0,0-3.56-1.78,7.87,7.87,0,0,0-2.15.31,4.48,4.48,0,0,0-2,1.19,6.76,6.76,0,0,0-1.47,2.49,12.34,12.34,0,0,0-.59,4.17v15.35a1.55,1.55,0,0,1-1.41,1.54l-.8.06c-.74,0-1.45.06-2.15.06s-1.4,0-2.12-.06l-.76-.06a1.55,1.55,0,0,1-1.41-1.54Z"/><path class="cls-1" d="M868.89,413.31a1.93,1.93,0,0,1,1.7-1.94h0a18.22,18.22,0,0,1,1.9-.09,16.52,16.52,0,0,1,1.84.09c.53.07,1.09.16,1.66.28a4.06,4.06,0,0,1,.34.89q.15.59.27,1.23c.09.43.16.85.22,1.26l.15,1a14,14,0,0,1,1.48-1.84,10.5,10.5,0,0,1,2-1.66,11.09,11.09,0,0,1,2.55-1.2,10.24,10.24,0,0,1,3.13-.46c3.6,0,6.31,1,8.13,3s2.74,5.06,2.74,9.27V441.9a1.7,1.7,0,0,1-1.52,1.69,25,25,0,0,1-2.84.16,24.7,24.7,0,0,1-2.84-.16,1.7,1.7,0,0,1-1.52-1.69V425.45a10.49,10.49,0,0,0-1-5.09,3.72,3.72,0,0,0-3.53-1.78,7.76,7.76,0,0,0-2.15.31,4.46,4.46,0,0,0-2,1.19,6.6,6.6,0,0,0-1.44,2.49,13,13,0,0,0-.55,4.17V441.9a1.7,1.7,0,0,1-1.52,1.69,25,25,0,0,1-2.84.16,24.7,24.7,0,0,1-2.84-.16,1.7,1.7,0,0,1-1.52-1.69Z"/><path class="cls-1" d="M903.15,399.15a.75.75,0,0,1,.63-.75,24.44,24.44,0,0,1,3.66-.27,25.45,25.45,0,0,1,3.72.27.76.76,0,0,1,.64.75v43.59a.74.74,0,0,1-.64.74,25.45,25.45,0,0,1-3.72.27,25.85,25.85,0,0,1-3.66-.26.75.75,0,0,1-.63-.75ZM913,426.74,920.71,412a.76.76,0,0,1,.56-.41,33.12,33.12,0,0,1,4.47-.31,28.36,28.36,0,0,1,3.47.21.75.75,0,0,1,.55,1.11l-7.58,13.72,8.92,16.11a.76.76,0,0,1-.57,1.11,32.32,32.32,0,0,1-3.75.22,29.3,29.3,0,0,1-4.17-.31.77.77,0,0,1-.55-.39Z"/><path class="cls-1" d="M947.59,400.11a1.07,1.07,0,0,1,.93-1.06l1.34-.12q1.11-.06,2.28-.06c.69,0,1.41,0,2.15.06l1.34.12a1.07,1.07,0,0,1,.93,1.06v42.4a1.07,1.07,0,0,1-.93,1.06c-.46.06-.91.09-1.34.12q-1.11.06-2.22.06c-.73,0-1.47,0-2.21-.06-.44,0-.88-.06-1.34-.12a1.07,1.07,0,0,1-.93-1.06Zm10.26,21.05,11.72-21.46a1.07,1.07,0,0,1,.77-.55c.75-.11,1.44-.18,2.09-.22s1.52-.06,2.18-.06,1.47,0,2.33.12l1,.1a1.08,1.08,0,0,1,.84,1.6l-11.27,19.85,12.3,21.39a1.07,1.07,0,0,1-.83,1.6l-1.07.1c-.88.08-1.67.12-2.36.12s-1.38,0-2.18-.06a20.46,20.46,0,0,1-2.16-.23,1.05,1.05,0,0,1-.77-.52Z"/><path class="cls-1" d="M1006.78,420.48V436c-.45.09-1,.17-1.51.25a13.16,13.16,0,0,1-1.87.12q-6.07,0-9.21-3.71t-3.13-11.27q0-7.54,3.16-11.39t9.06-3.83a22.45,22.45,0,0,1,3.93.3c.71.14,1.5.33,2.35.58a1,1,0,0,0,1.3-.95v-5.76a1,1,0,0,0-.73-1,17.26,17.26,0,0,0-2.34-.51,39.33,39.33,0,0,0-5.5-.37,21.9,21.9,0,0,0-8.87,1.72,18.43,18.43,0,0,0-6.57,4.79,21.22,21.22,0,0,0-4.08,7.28,28.47,28.47,0,0,0-1.41,9.11,29.37,29.37,0,0,0,1.35,9.09,19.91,19.91,0,0,0,4,7.21,18.13,18.13,0,0,0,6.76,4.73,24.34,24.34,0,0,0,9.45,1.69,53.05,53.05,0,0,0,6-.4,29.19,29.19,0,0,0,4.77-1,2.62,2.62,0,0,0,1.89-2.52V420.48a29.5,29.5,0,0,0-4.48-.37A28.14,28.14,0,0,0,1006.78,420.48Z"/><path class="cls-1" d="M550,466h3.73a.64.64,0,0,1,.64.64v34a.63.63,0,0,1-.61.64c-1,0-2.81,0-3.78,0a.63.63,0,0,1-.61-.64v-34A.64.64,0,0,1,550,466Zm5.84,17.37L567,466.28a.64.64,0,0,1,.5-.29c.8,0,2.71,0,4,0a.64.64,0,0,1,.52,1l-10.56,16,12,17.44a.64.64,0,0,1-.48,1c-.75.05-1.61.1-1.89.1s-1.71-.09-2.41-.16a.65.65,0,0,1-.46-.27Z"/><path class="cls-1" d="M593.94,477.76q-2.55-2.24-7.46-2.23a27.61,27.61,0,0,0-3.87.29,21.41,21.41,0,0,0-2.31.47.44.44,0,0,0-.33.43v3.2a.44.44,0,0,0,.56.42c.74-.21,1.49-.38,2.25-.52a18.12,18.12,0,0,1,3.21-.27,6.92,6.92,0,0,1,4.27,1.13q1.47,1.13,1.47,4v.93c-.46-.06-1-.12-1.69-.17s-1.53-.07-2.57-.07a15.62,15.62,0,0,0-4,.51,10.61,10.61,0,0,0-3.38,1.57,7.51,7.51,0,0,0-3.19,6.35,8.38,8.38,0,0,0,.74,3.68,6.57,6.57,0,0,0,2.08,2.5,8.74,8.74,0,0,0,3.29,1.42,19.23,19.23,0,0,0,4.34.45,29.6,29.6,0,0,0,5-.42c1-.18,2-.35,2.83-.52a1.68,1.68,0,0,0,1.34-1.65V484.9Q596.49,480,593.94,477.76Zm-2.21,19.69a13,13,0,0,1-2.13.37c-.8.08-1.58.12-2.33.12a17.35,17.35,0,0,1-1.86-.1,4.41,4.41,0,0,1-1.79-.54,3.64,3.64,0,0,1-1.35-1.27,4.25,4.25,0,0,1-.54-2.31,3.93,3.93,0,0,1,1.59-3.43,8,8,0,0,1,4.64-1.13c.52,0,1.16,0,1.91.1s1.37.13,1.86.2Z"/><path class="cls-1" d="M764.87,477.66c-1.7-1.49-4.19-2.23-7.45-2.23a27.63,27.63,0,0,0-3.88.29c-.82.12-1.58.29-2.31.47a.44.44,0,0,0-.33.43v3.2a.44.44,0,0,0,.56.42c.74-.21,1.49-.38,2.25-.52a18.12,18.12,0,0,1,3.21-.27,6.92,6.92,0,0,1,4.27,1.13q1.47,1.13,1.47,4v.93c-.46-.06-1-.12-1.69-.17s-1.53-.07-2.57-.07a15.62,15.62,0,0,0-4,.51,10.61,10.61,0,0,0-3.38,1.57,7.8,7.8,0,0,0-2.33,2.65,7.72,7.72,0,0,0-.86,3.7,8.38,8.38,0,0,0,.74,3.68,6.49,6.49,0,0,0,2.08,2.5,8.91,8.91,0,0,0,3.29,1.43,19.85,19.85,0,0,0,4.34.44,29.51,29.51,0,0,0,5-.42c1-.18,2-.35,2.83-.52a1.67,1.67,0,0,0,1.34-1.65V484.8Q767.42,479.9,764.87,477.66Zm-2.21,19.69a13,13,0,0,1-2.13.37c-.8.08-1.58.12-2.33.12a17.35,17.35,0,0,1-1.86-.1,4.61,4.61,0,0,1-1.79-.53,3.75,3.75,0,0,1-1.35-1.28,4.21,4.21,0,0,1-.54-2.3,4,4,0,0,1,1.59-3.44,8,8,0,0,1,4.64-1.13c.52,0,1.16,0,1.91.1s1.37.13,1.86.2Z"/><path class="cls-1" d="M865.17,477.66c-1.71-1.49-4.19-2.23-7.46-2.23a27.61,27.61,0,0,0-3.87.29c-.82.12-1.58.29-2.31.47a.45.45,0,0,0-.34.43v3.2a.44.44,0,0,0,.57.42,23,23,0,0,1,2.25-.52,18,18,0,0,1,3.21-.27,6.94,6.94,0,0,1,4.27,1.13q1.47,1.13,1.47,4v.93c-.46-.06-1-.12-1.69-.17s-1.53-.07-2.58-.07a15.6,15.6,0,0,0-4,.51,10.51,10.51,0,0,0-3.38,1.57A7.7,7.7,0,0,0,849,490a7.6,7.6,0,0,0-.86,3.7,8.39,8.39,0,0,0,.73,3.68,6.52,6.52,0,0,0,2.09,2.5,8.86,8.86,0,0,0,3.28,1.43,19.92,19.92,0,0,0,4.34.44,29.72,29.72,0,0,0,5-.42c1-.18,2-.35,2.83-.52a1.68,1.68,0,0,0,1.34-1.65V484.8Q867.72,479.9,865.17,477.66ZM863,497.35a13,13,0,0,1-2.14.37c-.8.08-1.57.12-2.32.12a17.67,17.67,0,0,1-1.87-.1,4.66,4.66,0,0,1-1.79-.53,3.75,3.75,0,0,1-1.35-1.28,4.21,4.21,0,0,1-.54-2.3,3.92,3.92,0,0,1,1.6-3.44,8,8,0,0,1,4.63-1.13c.53,0,1.16,0,1.91.1s1.38.13,1.87.2Z"/><rect class="cls-1" x="603.7" y="465.33" width="4.81" height="36.15" rx="0.69"/><rect class="cls-1" x="736.93" y="464.76" width="4.81" height="36.15" rx="0.69"/><path class="cls-1" d="M630.84,465.29c.93,0,2.57,0,3.5,0a.7.7,0,0,1,.68.7v13.17a7.43,7.43,0,0,1,2.75-2.55,8.83,8.83,0,0,1,4.51-1.08,11.57,11.57,0,0,1,4.17.73,8.32,8.32,0,0,1,3.28,2.28,10.72,10.72,0,0,1,2.14,3.93,18.7,18.7,0,0,1,.76,5.61q0,6.48-3.66,10.13t-10.52,3.66a24.49,24.49,0,0,1-4.44-.42,27.28,27.28,0,0,1-3.85-1V466A.7.7,0,0,1,630.84,465.29ZM635,497.21a10,10,0,0,0,1.89.41,15.59,15.59,0,0,0,2.08.13,9.64,9.64,0,0,0,3.36-.57,7.08,7.08,0,0,0,2.67-1.71,8.22,8.22,0,0,0,1.8-3,12.26,12.26,0,0,0,.66-4.24,11.87,11.87,0,0,0-1.43-6.33,5.12,5.12,0,0,0-4.7-2.25,6.92,6.92,0,0,0-2.24.37,5.87,5.87,0,0,0-2,1.17,5.79,5.79,0,0,0-1.5,2.16,8.58,8.58,0,0,0-.56,3.26Z"/><path class="cls-1" d="M775.16,465.22c.93,0,2.57,0,3.5,0a.7.7,0,0,1,.68.7v13.16a7.47,7.47,0,0,1,2.74-2.55,8.9,8.9,0,0,1,4.52-1.08,11.48,11.48,0,0,1,4.16.74,8.35,8.35,0,0,1,3.29,2.28,10.6,10.6,0,0,1,2.13,3.92,18.46,18.46,0,0,1,.76,5.62q0,6.48-3.65,10.13t-10.52,3.65a24.49,24.49,0,0,1-4.44-.42,26.07,26.07,0,0,1-3.85-.95v-34.5A.7.7,0,0,1,775.16,465.22Zm4.18,31.91a9.31,9.31,0,0,0,1.89.42,17.5,17.5,0,0,0,2.08.12,9.87,9.87,0,0,0,3.36-.56,7.1,7.1,0,0,0,2.67-1.72,8.25,8.25,0,0,0,1.79-2.94,12.3,12.3,0,0,0,.66-4.24,11.83,11.83,0,0,0-1.42-6.33,5.15,5.15,0,0,0-4.71-2.26,7.19,7.19,0,0,0-2.23.37,6.06,6.06,0,0,0-2,1.18,5.79,5.79,0,0,0-1.5,2.16,8.35,8.35,0,0,0-.56,3.26Z"/><path class="cls-1" d="M660.05,476.12h2.45a.89.89,0,0,1,.89.76c.06.36.13.8.17,1.17a17,17,0,0,1,.15,2,10.08,10.08,0,0,1,2.72-2.89,7.21,7.21,0,0,1,4.34-1.23l.81,0c.28,0,.52.05.71.08.07.29,0,4,0,4.41a3.58,3.58,0,0,0-.8-.1h-.67a8.73,8.73,0,0,0-2.52.37,5.38,5.38,0,0,0-2.16,1.3,6.35,6.35,0,0,0-1.52,2.55,12.78,12.78,0,0,0-.57,4.17V501a.33.33,0,0,1-.32.34c-.9,0-3.3,0-4.21,0a.34.34,0,0,1-.32-.34V477A.9.9,0,0,1,660.05,476.12Z"/><path class="cls-1" d="M695.15,489.9q.09,4.13,2.13,6c1.36,1.28,3.36,1.91,6,1.91a18.16,18.16,0,0,0,6.16-1,.53.53,0,0,1,.68.3,9.34,9.34,0,0,1,.42,1.32,12.48,12.48,0,0,1,.27,1.68.55.55,0,0,1-.35.55,16.11,16.11,0,0,1-3.18.88,24.7,24.7,0,0,1-4.3.35,16.13,16.13,0,0,1-5.88-1,10.35,10.35,0,0,1-6.38-6.82,17.56,17.56,0,0,1-.73-5.22,18.2,18.2,0,0,1,.71-5.22,11.68,11.68,0,0,1,2.18-4.22,10.61,10.61,0,0,1,3.7-2.85,12.31,12.31,0,0,1,5.28-1.05,11,11,0,0,1,4.56.88,9.23,9.23,0,0,1,3.28,2.43,10.33,10.33,0,0,1,2,3.68,14.93,14.93,0,0,1,.69,4.63c0,.46,0,.94,0,1.45s-.06.94-.1,1.3Zm12.45-3.63a9.37,9.37,0,0,0-.36-2.62,6.8,6.8,0,0,0-1.08-2.19,5.22,5.22,0,0,0-1.82-1.49,5.63,5.63,0,0,0-2.62-.57,5.79,5.79,0,0,0-4.59,1.82,8.83,8.83,0,0,0-1.93,5Z"/><path class="cls-1" d="M813.82,501.87a12.29,12.29,0,0,1-5.15-1,10.2,10.2,0,0,1-3.68-2.77,11.53,11.53,0,0,1-2.18-4.17,19.14,19.14,0,0,1,0-10.4,11.53,11.53,0,0,1,2.18-4.17,10.48,10.48,0,0,1,3.68-2.79,13.39,13.39,0,0,1,10.3,0,10.44,10.44,0,0,1,3.67,2.79,11.55,11.55,0,0,1,2.19,4.17,19.4,19.4,0,0,1,0,10.4,11.55,11.55,0,0,1-2.19,4.17,10.16,10.16,0,0,1-3.67,2.77A12.36,12.36,0,0,1,813.82,501.87Zm0-3.88a5.58,5.58,0,0,0,5-2.45,12.31,12.31,0,0,0,1.62-6.82,12.15,12.15,0,0,0-1.62-6.79,5.59,5.59,0,0,0-5-2.43,5.52,5.52,0,0,0-5,2.43,12.33,12.33,0,0,0-1.6,6.79,12.49,12.49,0,0,0,1.6,6.82A5.52,5.52,0,0,0,813.82,498Z"/><path class="cls-1" d="M902.78,501.87a12.32,12.32,0,0,1-5.15-1,10.2,10.2,0,0,1-3.68-2.77,11.53,11.53,0,0,1-2.18-4.17,19.4,19.4,0,0,1,0-10.4,11.53,11.53,0,0,1,2.18-4.17,10.48,10.48,0,0,1,3.68-2.79,13.39,13.39,0,0,1,10.3,0,10.48,10.48,0,0,1,3.68,2.79,11.53,11.53,0,0,1,2.18,4.17,19.4,19.4,0,0,1,0,10.4,11.53,11.53,0,0,1-2.18,4.17,10.2,10.2,0,0,1-3.68,2.77A12.32,12.32,0,0,1,902.78,501.87Zm0-3.88a5.56,5.56,0,0,0,5-2.45,12.31,12.31,0,0,0,1.62-6.82,12.15,12.15,0,0,0-1.62-6.79,6.34,6.34,0,0,0-10,0,12.33,12.33,0,0,0-1.59,6.79,12.49,12.49,0,0,0,1.59,6.82A5.54,5.54,0,0,0,902.78,498Z"/><path class="cls-1" d="M921.43,476.08c.83,0,2.35,0,3.12,0a.56.56,0,0,1,.53.47c.07.42.14.91.21,1.49a17,17,0,0,1,.15,2,10.08,10.08,0,0,1,2.72-2.89A7.21,7.21,0,0,1,932.5,476l.81,0c.28,0,.52.05.71.08.07.29,0,4,0,4.41a3.58,3.58,0,0,0-.8-.1h-.67a8.73,8.73,0,0,0-2.52.37,5.38,5.38,0,0,0-2.16,1.3,6.35,6.35,0,0,0-1.52,2.55,12.81,12.81,0,0,0-.56,4.17v12a.5.5,0,0,1-.5.5c-.94,0-2.92,0-3.87,0a.5.5,0,0,1-.49-.5V476.65A.57.57,0,0,1,921.43,476.08Z"/><path class="cls-1" d="M953.63,476.08c.93,0,2.57,0,3.51,0a.7.7,0,0,1,.67.7V489.9a14.65,14.65,0,0,0,.44,3.9,5.56,5.56,0,0,0,1.33,2.43,4.73,4.73,0,0,0,2.15,1.22,11.31,11.31,0,0,0,2.95.35,14.67,14.67,0,0,0,4.26-.54V476.78a.7.7,0,0,1,.68-.7c.92,0,2.53,0,3.46,0a.7.7,0,0,1,.67.7v22.64a1.38,1.38,0,0,1-1.06,1.35c-.9.23-1.91.45-3,.65a26.4,26.4,0,0,1-4.92.45,23.42,23.42,0,0,1-4.54-.42,8.62,8.62,0,0,1-3.75-1.69,8.5,8.5,0,0,1-2.55-3.58,16.36,16.36,0,0,1-.94-6.09V476.78A.7.7,0,0,1,953.63,476.08Z"/><path class="cls-1" d="M982.58,476.07h1.94a1.19,1.19,0,0,1,1.17,1c0,.29.08.61.12.95a17,17,0,0,1,.15,2,9.4,9.4,0,0,1,1.1-1.69,8.37,8.37,0,0,1,1.57-1.45,8.06,8.06,0,0,1,4.69-1.42,6.57,6.57,0,0,1,7,4.56,12.41,12.41,0,0,1,1.2-1.67,9.7,9.7,0,0,1,1.6-1.47,7.93,7.93,0,0,1,2-1,7.76,7.76,0,0,1,2.55-.39q4.36,0,6.35,2.45c1.32,1.64,2,4.06,2,7.26v14.88a1.21,1.21,0,0,1-1.19,1.2h-2.49a1.21,1.21,0,0,1-1.18-1.2V486.66a9.86,9.86,0,0,0-1-5.07,3.65,3.65,0,0,0-3.38-1.7,5.07,5.07,0,0,0-4.05,1.82,8,8,0,0,0-1.54,5.34v13.07a1.21,1.21,0,0,1-1.19,1.2h-2.44a1.2,1.2,0,0,1-1.18-1.2v-13.8a9.88,9.88,0,0,0-1-4.93,3.38,3.38,0,0,0-3.14-1.64,5.09,5.09,0,0,0-2.31.54A5.49,5.49,0,0,0,988,481.9a8.24,8.24,0,0,0-1.28,2.73,14,14,0,0,0-.46,3.8v11.69a1.21,1.21,0,0,1-1.19,1.2h-2.49a1.21,1.21,0,0,1-1.18-1.2V477.27A1.21,1.21,0,0,1,982.58,476.07Z"/><path class="cls-1" d="M1000.62,420h15.05a0,0,0,0,1,0,0v6.62a0,0,0,0,1,0,0h-15.05a.94.94,0,0,1-.94-.94V421A.94.94,0,0,1,1000.62,420Z"/><path class="cls-1" d="M618.13,501.47h3.49a.63.63,0,0,0,.63-.62l.07-26a.63.63,0,0,0-.63-.63h-3.56a.63.63,0,0,0-.63.63v26A.63.63,0,0,0,618.13,501.47Z"/><rect class="cls-1" x="617.23" y="465.43" width="5.35" height="5.35" rx="0.76"/><path class="cls-1" d="M679.66,500.86h3.11a.82.82,0,0,0,.82-.82l.06-25.61a.82.82,0,0,0-.82-.82h-3.17a.82.82,0,0,0-.83.82V500A.83.83,0,0,0,679.66,500.86Z"/><rect class="cls-1" x="678.57" y="464.81" width="5.35" height="5.35" rx="0.76"/><path class="cls-1" d="M941.34,501.47h3.53a.61.61,0,0,0,.61-.61l.06-26.28a.35.35,0,0,0-.35-.36h-4.11a.36.36,0,0,0-.36.35v26.29A.61.61,0,0,0,941.34,501.47Z"/><rect class="cls-1" x="940.46" y="465.43" width="5.35" height="5.35" rx="0.76"/><path class="cls-1" d="M887.75,499.36a7.6,7.6,0,0,0-.22-1.35.72.72,0,0,0-.85-.51l-.67.12a8.68,8.68,0,0,1-1.57.13,6,6,0,0,1-1.79-.23,1.92,1.92,0,0,1-1.12-.88,4.58,4.58,0,0,1-.59-1.88,23.91,23.91,0,0,1-.18-3.29V480l6.22,0a.35.35,0,0,0,.35-.35v-3.15a.35.35,0,0,0-.35-.35h-6.22v-5.59a.66.66,0,0,0-.65-.65H876.4a.45.45,0,0,0-.45.45v5.79h-3.56a.46.46,0,0,0-.46.45v3.05a.35.35,0,0,0,.35.35l3.67,0v14.27c0,2.65.67,4.55,2,5.69a8.15,8.15,0,0,0,5.52,1.72,20.77,20.77,0,0,0,2.3-.12c.51-.06,1-.14,1.48-.23a.74.74,0,0,0,.57-.76Q887.8,500,887.75,499.36Z"/><rect class="cls-1" x="802.18" y="400.67" width="7.74" height="7.74" rx="0.94"/><rect class="cls-1" x="816.48" y="400.67" width="7.74" height="7.74" rx="0.94" transform="translate(1640.71 809.08) rotate(180)"/><path class="cls-1" d="M719.69,476.07h2.45a.89.89,0,0,1,.89.76c.06.36.13.81.17,1.17a17,17,0,0,1,.15,2,9.94,9.94,0,0,1,2.72-2.89,7.19,7.19,0,0,1,4.34-1.23l.81,0a5.86,5.86,0,0,1,.71.07c.07.29,0,4,0,4.41a3.59,3.59,0,0,0-.81-.1h-.66a8.85,8.85,0,0,0-2.53.37,5.28,5.28,0,0,0-2.15,1.3,6.35,6.35,0,0,0-1.52,2.55,12.78,12.78,0,0,0-.57,4.17v12.19a.34.34,0,0,1-.32.34c-.9,0-3.31,0-4.21,0a.34.34,0,0,1-.32-.34V477A.9.9,0,0,1,719.69,476.07Z"/><path class="cls-1" d="M832.9,476.07h2.45a.9.9,0,0,1,.89.76c.06.36.12.81.17,1.17a17,17,0,0,1,.15,2,9.94,9.94,0,0,1,2.72-2.89,7.19,7.19,0,0,1,4.34-1.23l.81,0a6.08,6.08,0,0,1,.71.07c.07.29,0,4,0,4.41a3.59,3.59,0,0,0-.81-.1h-.66a8.8,8.8,0,0,0-2.53.37,5.28,5.28,0,0,0-2.15,1.3,6.35,6.35,0,0,0-1.52,2.55,12.78,12.78,0,0,0-.57,4.17v12.19a.34.34,0,0,1-.32.34c-.9,0-3.31,0-4.21,0a.34.34,0,0,1-.32-.34V477A.9.9,0,0,1,832.9,476.07Z"/></svg>