<svg xmlns="http://www.w3.org/2000/svg" viewBox="0 0 407.68 217.65"><defs><style>.cls-1{fill:#231f20;}.cls-2{fill:#ee1c25;}</style></defs><g id="Layer_2" data-name="Layer 2"><g id="Layer_1-2" data-name="Layer 1"><polygon class="cls-1" points="73.9 0 119 179.88 106.89 217.65 56.04 217.65 0 0 73.9 0"/><path class="cls-2" d="M316.83,149.39v68.26h-4.42a53.92,53.92,0,0,1-52-68.26h56.4Z"/><polygon class="cls-1" points="280.87 0 244.28 142.12 232.69 184.15 195.97 43.87 206.97 0 280.87 0"/><polygon class="cls-1" points="166.49 0 223.43 217.65 148.62 217.65 92.58 0 166.49 0"/><path class="cls-1" d="M407.68,0V157.15a60.5,60.5,0,0,1-60.5,60.5H331.75V0Z"/><polygon class="cls-1" points="407.68 55.22 289.52 55.22 301.8 0 407.68 0 407.68 55.22"/></g></g></svg>